<svg width="61" height="61" viewBox="0 0 61 61" fill="none" xmlns="http://www.w3.org/2000/svg">
<path d="M30.5 1.21997C14.3289 1.21997 1.21997 14.3289 1.21997 30.5C1.21997 46.6711 14.3289 59.78 30.5 59.78C46.6711 59.78 59.78 46.6711 59.78 30.5C59.78 14.3289 46.6711 1.21997 30.5 1.21997ZM23.3325 42.6359H17.4033V23.5551H23.3325V42.6359ZM20.3313 21.2127C18.4586 21.2127 17.2477 19.886 17.2477 18.2451C17.2477 16.5706 18.4952 15.2835 20.4075 15.2835C22.3199 15.2835 23.4911 16.5706 23.5277 18.2451C23.5277 19.886 22.3199 21.2127 20.3313 21.2127ZM44.9875 42.6359H39.0583V32.0616C39.0583 29.6002 38.1982 27.9288 36.054 27.9288C34.4162 27.9288 33.4432 29.0604 33.0132 30.1492C32.8546 30.5366 32.8149 31.0856 32.8149 31.6315V42.6329H26.8827V29.6399C26.8827 27.2578 26.8064 25.2662 26.7271 23.5521H31.8786L32.15 26.2025H32.269C33.0498 24.9581 34.9621 23.122 38.1616 23.122C42.0625 23.122 44.9875 25.7359 44.9875 31.354V42.6359Z" fill="white"/>
</svg>
