<svg width="61" height="61" viewBox="0 0 61 61" fill="none" xmlns="http://www.w3.org/2000/svg">
<path d="M30.5 0C13.6569 0 0 13.6569 0 30.5C0 47.3431 13.6569 61 30.5 61C47.3431 61 61 47.3431 61 30.5C61 13.6569 47.3431 0 30.5 0ZM45.1577 22.9907C45.1781 23.3107 45.1781 23.6443 45.1781 23.9711C45.1781 33.9653 37.5667 45.4777 23.6579 45.4777C19.3689 45.4777 15.393 44.2318 12.0434 42.0873C12.6561 42.1554 13.2416 42.1826 13.868 42.1826C17.4081 42.1826 20.6624 40.9844 23.2563 38.9556C19.9339 38.8875 17.1426 36.7089 16.1895 33.7134C17.3537 33.8836 18.4021 33.8836 19.6003 33.5772C17.8897 33.2297 16.3521 32.3006 15.2487 30.9479C14.1454 29.5951 13.5445 27.9021 13.548 26.1565V26.0612C14.5488 26.6262 15.7266 26.9734 16.9588 27.0211C15.9229 26.3307 15.0734 25.3954 14.4855 24.2981C13.8977 23.2008 13.5897 21.9753 13.5888 20.7305C13.5888 19.3212 13.9565 18.0345 14.6169 16.918C16.5156 19.2554 18.885 21.1672 21.571 22.5289C24.257 23.8907 27.1995 24.672 30.2073 24.8221C29.1384 19.682 32.9781 15.5223 37.594 15.5223C39.7725 15.5223 41.7333 16.4346 43.1153 17.9051C44.8241 17.5852 46.458 16.9452 47.915 16.0874C47.3499 17.8371 46.1653 19.3144 44.5926 20.2471C46.1176 20.0837 47.5882 19.6616 48.9498 19.0693C47.9218 20.5807 46.635 21.9219 45.1577 22.9907Z" fill="white"/>
</svg>
