<svg width="61" height="61" viewBox="0 0 61 61" fill="none" xmlns="http://www.w3.org/2000/svg">
<path d="M30.5 61C26.3698 61 22.4183 60.1958 18.6455 58.5874C14.8727 56.979 11.6261 54.8146 8.90576 52.0942C6.18538 49.3739 4.021 46.1273 2.4126 42.3545C0.804199 38.5817 0 34.6302 0 30.5C0 26.3698 0.804199 22.4183 2.4126 18.6455C4.021 14.8727 6.18538 11.6261 8.90576 8.90576C11.6261 6.18538 14.8727 4.021 18.6455 2.4126C22.4183 0.804199 26.3698 0 30.5 0C34.6302 0 38.5817 0.804199 42.3545 2.4126C46.1273 4.021 49.3739 6.18538 52.0942 8.90576C54.8146 11.6261 56.979 14.8727 58.5874 18.6455C60.1958 22.4183 61 26.3698 61 30.5C61 34.6302 60.1958 38.5817 58.5874 42.3545C56.979 46.1273 54.8146 49.3739 52.0942 52.0942C49.3739 54.8146 46.1273 56.979 42.3545 58.5874C38.5817 60.1958 34.6302 61 30.5 61ZM45.75 19.0625C45.75 18.0299 45.3826 17.1364 44.6479 16.3818C43.9132 15.6273 43.0098 15.25 41.9375 15.25H19.0625C18.0299 15.25 17.1364 15.6273 16.3818 16.3818C15.6273 17.1364 15.25 18.0299 15.25 19.0625V22.875H22.041C24.3444 20.3333 27.1641 19.0625 30.5 19.0625C33.8359 19.0625 36.6556 20.3333 38.959 22.875H45.75V19.0625ZM22.875 30.5C22.875 32.6048 23.6196 34.4019 25.1089 35.8911C26.5981 37.3804 28.3952 38.125 30.5 38.125C32.6048 38.125 34.4019 37.3804 35.8911 35.8911C37.3804 34.4019 38.125 32.6048 38.125 30.5C38.125 28.3952 37.3804 26.5981 35.8911 25.1089C34.4019 23.6196 32.6048 22.875 30.5 22.875C28.3952 22.875 26.5981 23.6196 25.1089 25.1089C23.6196 26.5981 22.875 28.3952 22.875 30.5ZM45.75 26.6875H41.2227C41.6992 27.998 41.9375 29.2689 41.9375 30.5C41.9375 33.6771 40.8255 36.3776 38.6016 38.6016C36.3776 40.8255 33.6771 41.9375 30.5 41.9375C27.3229 41.9375 24.6224 40.8255 22.3984 38.6016C20.1745 36.3776 19.0625 33.6771 19.0625 30.5C19.0625 29.2689 19.3008 27.998 19.7773 26.6875H15.25V41.9375C15.25 43.0098 15.6174 43.9132 16.3521 44.6479C17.0868 45.3826 17.9902 45.75 19.0625 45.75H41.9375C43.0098 45.75 43.9132 45.3826 44.6479 44.6479C45.3826 43.9132 45.75 43.0098 45.75 41.9375V26.6875Z" fill="white"/>
</svg>
